<svg width="24" height="25" viewBox="0 0 24 25" fill="none" xmlns="http://www.w3.org/2000/svg">
<path d="M7.03009 0.232471C5.75329 0.292711 4.88112 0.497191 4.11912 0.795751C3.33025 1.10319 2.66161 1.51551 1.99633 2.18343C1.33033 2.85183 0.921365 3.52167 0.616085 4.31127C0.320646 5.07519 0.120246 5.94783 0.0640856 7.22535C0.00792558 8.50551 -0.00479442 8.91375 0.00144558 12.1725C0.00768558 15.4307 0.0220856 15.8397 0.0830456 17.1201C0.144006 18.3966 0.347766 19.2683 0.646325 20.0308C0.954245 20.8197 1.36609 21.4881 2.03425 22.1536C2.70217 22.8191 3.37249 23.2278 4.16256 23.5334C4.92577 23.8286 5.79864 24.0294 7.07592 24.0854C8.35584 24.1418 8.76456 24.1542 12.0223 24.148C15.2815 24.1418 15.6902 24.1274 16.9702 24.0666C18.247 24.0057 19.1182 23.8012 19.8811 23.5034C20.67 23.1947 21.3386 22.7836 22.0039 22.1154C22.6692 21.4475 23.0782 20.7772 23.3834 19.9871C23.6789 19.2239 23.88 18.351 23.9354 17.0745C23.9914 15.7938 24.0046 15.3846 23.9983 12.1266C23.9921 8.86815 23.9774 8.45991 23.9167 7.18023C23.856 5.90271 23.6515 5.03127 23.3534 4.26855C23.045 3.47967 22.6337 2.81175 21.9658 2.14575C21.2978 1.48047 20.6275 1.07079 19.8374 0.766231C19.0738 0.470791 18.2014 0.269431 16.9241 0.214231C15.6444 0.157111 15.2359 0.144631 11.977 0.150871C8.71873 0.157111 8.31024 0.171031 7.03032 0.232471M7.17025 21.9256C6.00025 21.8747 5.36496 21.6803 4.9416 21.5174C4.38096 21.3004 3.98089 21.0402 3.55969 20.6224C3.13945 20.2029 2.87857 19.804 2.65969 19.2446C2.49529 18.8212 2.29729 18.1866 2.24257 17.0166C2.18305 15.7518 2.16937 15.3724 2.16361 12.1682C2.15737 8.96487 2.16913 8.58519 2.22433 7.31943C2.27449 6.15039 2.47009 5.51415 2.63257 5.09127C2.84953 4.52991 3.10872 4.13055 3.52752 3.70935C3.94704 3.28839 4.34592 3.02823 4.90584 2.80935C5.32896 2.64399 5.96329 2.44767 7.1328 2.39223C8.39832 2.33223 8.77752 2.31951 11.9808 2.31327C15.1848 2.30703 15.5645 2.31831 16.8302 2.37399C17.9993 2.42487 18.6355 2.61855 19.0582 2.78223C19.6193 2.99919 20.0194 3.25767 20.4401 3.67719C20.8608 4.09671 21.1217 4.49487 21.3406 5.05599C21.5057 5.47791 21.7022 6.11319 21.7574 7.28223C21.8177 8.54775 21.8314 8.92719 21.8371 12.1307C21.8434 15.335 21.8316 15.7144 21.7762 16.9794C21.7253 18.1494 21.5311 18.785 21.3679 19.2088C21.151 19.769 20.8915 20.169 20.4725 20.5902C20.0534 21.0098 19.6546 21.2714 19.0942 21.4902C18.672 21.6551 18.0367 21.8519 16.8679 21.9074C15.6024 21.9669 15.2232 21.9806 12.0187 21.9863C8.81544 21.9926 8.43624 21.9806 7.17048 21.9256M16.9526 5.73495C16.9541 6.52959 17.6004 7.17303 18.395 7.17159C19.1902 7.17015 19.8336 6.52431 19.8324 5.72943C19.8307 4.93479 19.1846 4.29087 18.3895 4.29231C17.5944 4.29375 16.951 4.94007 16.9524 5.73471M5.83848 12.1612C5.84496 15.5644 8.60905 18.3172 12.0115 18.3105C15.4142 18.3038 18.1685 15.5406 18.162 12.1374C18.1553 8.73543 15.391 5.98119 11.9878 5.98767C8.58528 5.99439 5.83176 8.75871 5.83848 12.1612ZM7.99992 12.1569C7.99608 9.94815 9.78384 8.15367 11.9921 8.14983C14.2008 8.14551 15.9955 9.93255 15.9998 12.1418C16.0042 14.351 14.2164 16.145 12.0072 16.1493C9.79872 16.1536 8.004 14.3663 7.99992 12.1571" fill="white"/>
</svg>
