<svg width="24" height="25" viewBox="0 0 24 25" fill="none" xmlns="http://www.w3.org/2000/svg">
<g clip-path="url(#clip0_1443_2795)">
<path fill-rule="evenodd" clip-rule="evenodd" d="M12 0.145508C18.6274 0.145508 24 5.51815 24 12.1455H24.0005C24.0005 18.2809 19.3963 23.3401 13.4544 24.0577V15.8166H16.6983H16.6988L16.6995 15.8127H16.7006L17.3741 12.1455H13.4544V10.8486C13.4544 10.1892 13.5424 9.66788 13.7361 9.26702C14.1123 8.49261 14.8845 8.16924 16.1804 8.16924C16.7914 8.16924 17.2834 8.18412 17.5666 8.21388V8.20979C17.5672 8.20986 17.5679 8.20992 17.5685 8.20999V4.88599C17.0318 4.73719 15.72 4.58791 14.9597 4.58791C12.2992 4.58791 10.5902 5.42124 9.74126 7.17495C9.30936 8.0651 9.0994 9.19272 9.0994 10.5692V12.1455H6.62688V12.1494H6.625V15.8166H9.0994V23.7918C3.87363 22.4941 0 17.7724 0 12.1455C0 5.51815 5.37264 0.145508 12 0.145508Z" fill="white"/>
</g>
<defs>
<clipPath id="clip0_1443_2795">
<rect width="24" height="24" fill="white" transform="translate(0 0.148438)"/>
</clipPath>
</defs>
</svg>
