<svg width="10" height="14" viewBox="0 0 10 14" fill="none" xmlns="http://www.w3.org/2000/svg">
<path d="M5.57269 13.0214C5.42099 13.1673 5.21365 13.25 5.00126 13.25C4.78888 13.25 4.58154 13.1673 4.42984 13.0214L0.237674 8.9893C0.0809103 8.83852 6.08831e-07 8.6391 6.17547e-07 8.43969C6.26264e-07 8.24027 0.0809104 8.04085 0.237674 7.89008C0.551202 7.58852 1.067 7.58852 1.38053 7.89008L4.19216 10.5944L4.19216 1.52821C4.19216 1.10019 4.55626 0.75 5.00126 0.75C5.44627 0.75 5.81037 1.10019 5.81037 1.52821L5.81037 10.5944L8.622 7.89008C8.93552 7.58852 9.45133 7.58852 9.76485 7.89008C10.0784 8.19163 10.0784 8.68774 9.76485 8.9893L5.57269 13.0214Z" fill="black"/>
</svg>
