<svg width="80" height="81" viewBox="0 0 80 81" fill="none" xmlns="http://www.w3.org/2000/svg">
<path d="M12.0723 21.4242C8.24416 21.4242 5.12891 18.3005 5.12891 14.4621C5.12891 10.6237 8.24416 7.5 12.0723 7.5C15.9004 7.5 19.0156 10.6237 19.0156 14.4621C19.0156 18.3005 15.9004 21.4242 12.0723 21.4242Z" fill="#D60001"/>
<path d="M72.5566 21.4242H63.2988C62.0197 21.4242 60.9844 20.3861 60.9844 19.1035V9.8207C60.9844 8.53813 62.0197 7.5 63.2988 7.5H72.5566C73.8358 7.5 74.8711 8.53813 74.8711 9.8207V19.1035C74.8711 20.3861 73.8358 21.4242 72.5566 21.4242Z" fill="#D60001"/>
<path d="M40.0004 21.4242C39.2721 21.4242 38.5854 21.0792 38.1488 20.4944L31.2054 11.2116C30.6793 10.5092 30.5944 9.56852 30.9863 8.78257C31.3798 7.99663 32.1806 7.5 33.057 7.5H46.9437C47.8201 7.5 48.6209 7.99663 49.0144 8.78257C49.4047 9.56852 49.3214 10.5092 48.7953 11.2116L41.8519 20.4944C41.4153 21.0792 40.7286 21.4242 40.0004 21.4242Z" fill="#D60001"/>
<path d="M9.75781 21.6593C4.4824 22.7377 0.5 27.424 0.5 33.0277V46.9519C0.5 48.2344 1.53533 49.2726 2.81445 49.2726H21.3301C22.6092 49.2726 23.6445 48.2344 23.6445 46.9519V33.0277C23.6445 29.8932 22.4256 26.9784 20.2593 24.865C18.6484 23.2065 16.6163 22.1065 14.3867 21.6563L9.75781 21.6593Z" fill="#D60001"/>
<path d="M37.6855 21.6593C32.4101 22.7377 28.4277 27.4255 28.4277 33.0277V46.9519C28.4277 48.2344 29.4631 49.2726 30.7422 49.2726H49.2578C50.5369 49.2726 51.5723 48.2344 51.5723 46.9519V33.0277C51.5723 29.8932 50.3533 26.9784 48.187 24.865C46.5761 23.2065 44.544 22.1065 42.3145 21.6563L37.6855 21.6593Z" fill="#D60001"/>
<path d="M65.6133 21.6593C60.3379 22.7377 56.3555 27.4255 56.3555 33.0277V46.9519C56.3555 48.2344 57.3908 49.2726 58.6699 49.2726H77.1855C78.4647 49.2726 79.5 48.2344 79.5 46.9519V33.0277C79.5 29.8932 78.2811 26.9784 76.1147 24.865C74.5039 23.2065 72.4718 22.1065 70.2422 21.6563L65.6133 21.6593Z" fill="#D60001"/>
<path d="M7.44336 50.293V71.1793C7.44336 72.4619 8.47869 73.5 9.75781 73.5H14.3867C15.6658 73.5 16.7012 72.4619 16.7012 71.1793V50.293H7.44336Z" fill="#D60001"/>
<path d="M35.3711 50.293V71.1793C35.3711 72.4619 36.4064 73.5 37.6855 73.5H42.3145C43.5936 73.5 44.6289 72.4619 44.6289 71.1793V50.293H35.3711Z" fill="#D60001"/>
<path d="M63.2988 50.293V71.1793C63.2988 72.4619 64.3342 73.5 65.6133 73.5H70.2422C71.5213 73.5 72.5566 72.4619 72.5566 71.1793V50.293H63.2988Z" fill="#D60001"/>
</svg>
