<svg width="11" height="8" viewBox="0 0 11 8" fill="none" xmlns="http://www.w3.org/2000/svg">
<path d="M10.3171 3.54185C10.4339 3.66321 10.5 3.82908 10.5 3.99899C10.5 4.1689 10.4339 4.33477 10.3171 4.45613L7.09144 7.80986C6.97082 7.93527 6.81128 8 6.65175 8C6.49222 8 6.33268 7.93527 6.21206 7.80986C5.97082 7.55904 5.97082 7.1464 6.21206 6.89558L8.37549 4.64627H1.12257C0.780156 4.64627 0.5 4.35499 0.5 3.99899C0.5 3.64298 0.780156 3.35171 1.12257 3.35171H8.37549L6.21206 1.1024C5.97082 0.85158 5.97082 0.438938 6.21206 0.188116C6.45331 -0.0627054 6.85019 -0.0627054 7.09144 0.188116L10.3171 3.54185Z" fill="white"/>
</svg>
