<svg width="17" height="17" viewBox="0 0 17 17" fill="none" xmlns="http://www.w3.org/2000/svg">
<mask id="mask0_211_28222" style="mask-type:alpha" maskUnits="userSpaceOnUse" x="0" y="0" width="17" height="17">
<circle cx="8.5" cy="8.5" r="8" fill="#51D0DB"/>
</mask>
<g mask="url(#mask0_211_28222)">
</g>
<g clip-path="url(#clip0_211_28222)">
<path d="M6.93007 12.0463L3.73007 8.82796C3.63743 8.73282 3.58594 8.60775 3.58594 8.47786C3.58594 8.34797 3.63743 8.2229 3.73007 8.12776L4.42633 7.42757C4.47077 7.38181 4.52463 7.34531 4.58453 7.32035C4.64444 7.29539 4.7091 7.2825 4.77446 7.2825C4.83983 7.2825 4.90449 7.29539 4.96439 7.32035C5.0243 7.34531 5.07816 7.38181 5.1226 7.42757L7.2782 9.59529L11.8953 4.95171C11.9398 4.90595 11.9936 4.86945 12.0535 4.84449C12.1134 4.81953 12.1781 4.80664 12.2435 4.80664C12.3088 4.80664 12.3735 4.81953 12.4334 4.84449C12.4933 4.86945 12.5472 4.90595 12.5916 4.95171L13.2879 5.6519C13.3805 5.74704 13.432 5.87211 13.432 6.002C13.432 6.13189 13.3805 6.25696 13.2879 6.3521L7.62633 12.0463C7.58189 12.0921 7.52803 12.1286 7.46813 12.1535C7.40822 12.1785 7.34356 12.1914 7.2782 12.1914C7.21284 12.1914 7.14818 12.1785 7.08827 12.1535C7.02837 12.1286 6.97451 12.0921 6.93007 12.0463Z" fill="white"/>
</g>
<defs>
<clipPath id="clip0_211_28222">
<rect width="9.84615" height="7.38462" fill="white" transform="translate(3.58594 4.80664)"/>
</clipPath>
</defs>
</svg>
