<svg width="95" height="194" viewBox="0 0 95 194" fill="none" xmlns="http://www.w3.org/2000/svg">
<path d="M21.8205 185.498L17.6016 189.698L21.8205 193.899L26.0394 189.698L21.8205 185.498Z" fill="#D60000"/>
<path d="M42.7936 161.721L35.6562 168.827L42.7936 175.934L49.931 168.827L42.7936 161.721Z" fill="#D60000"/>
<path d="M12.8034 30.3662L5.66602 37.4727L12.8034 44.5791L19.9408 37.4727L12.8034 30.3662Z" fill="#D60000"/>
<path d="M42.7897 0.498044L35.6523 7.60449L42.7897 14.7109L49.9271 7.60449L42.7897 0.498044Z" fill="#D60000"/>
<path d="M66.7707 134.042L55.8164 144.949L66.7707 155.856L77.7249 144.949L66.7707 134.042Z" fill="#D60000"/>
<path d="M36.7804 50.435L25.8262 61.3418L36.7804 72.2486L47.7347 61.3418L36.7804 50.435Z" fill="#D60000"/>
<path d="M66.7726 20.5717L55.8184 31.4785L66.7726 42.3853L77.7269 31.4785L66.7726 20.5717Z" fill="#D60000"/>
<path d="M93.7591 102.248L77.8613 118.077L93.7591 133.906L109.657 118.077L93.7591 102.248Z" fill="#D60000"/>
<path d="M63.7611 72.3899L47.8633 88.2188L63.7611 104.048L79.6589 88.2188L63.7611 72.3899Z" fill="#D60000"/>
<path d="M93.7611 42.5217L77.8633 58.3506L93.7611 74.1795L109.659 58.3506L93.7611 42.5217Z" fill="#D60000"/>
</svg>
