<svg width="308" height="661" viewBox="0 0 308 661" fill="none" xmlns="http://www.w3.org/2000/svg">
<g clip-path="url(#clip0_1845_8588)">
<path d="M20.9852 567.828L0.472656 588.341L20.9851 608.853L41.4976 588.341L20.9852 567.828Z" fill="#D60000"/>
<path d="M20.9754 102.463L0.462891 122.976L20.9754 143.488L41.4879 122.976L20.9754 102.463Z" fill="#D60000"/>
<path d="M89.898 487.934L58.416 519.416L89.898 550.898L121.38 519.416L89.898 487.934Z" fill="#D60000"/>
<path d="M3.70463 246.604L-27.7773 278.086L3.70463 309.568L35.1866 278.086L3.70463 246.604Z" fill="#D60000"/>
<path d="M89.9 160.405L58.418 191.887L89.9 223.369L121.382 191.887L89.9 160.405Z" fill="#D60000"/>
<path d="M167.457 396.162L121.768 441.852L167.457 487.541L213.147 441.852L167.457 396.162Z" fill="#D60000"/>
<path d="M81.2442 309.976L35.5547 355.665L81.2442 401.355L126.934 355.665L81.2442 309.976Z" fill="#D60000"/>
<path d="M167.463 223.763L121.773 269.452L167.463 315.142L213.152 269.452L167.463 223.763Z" fill="#D60000"/>
<path d="M253.658 301.318L199.324 355.652L253.658 409.986L307.992 355.652L253.658 301.318Z" fill="#D60000"/>
</g>
<defs>
<clipPath id="clip0_1845_8588">
<rect width="308" height="661" fill="white"/>
</clipPath>
</defs>
</svg>
