<svg width="176" height="284" viewBox="0 0 176 284" fill="none" xmlns="http://www.w3.org/2000/svg">
<g clip-path="url(#clip0_1848_8885)">
<path d="M4.76201 -0.000617018L-0.00195312 4.76953L4.76201 9.53968L9.52597 4.76953L4.76201 -0.000617018Z" fill="#D60000"/>
<path d="M26.9197 273.567L21.7148 278.778L26.9197 283.99L32.1245 278.778L26.9197 273.567Z" fill="#D60000"/>
<path d="M26.9216 21.7464L21.7168 26.958L26.9216 32.1696L32.1265 26.958L26.9216 21.7464Z" fill="#D60000"/>
<path d="M52.7956 244.067L43.9902 252.884L52.7956 261.701L61.6009 252.884L52.7956 244.067Z" fill="#D60000"/>
<path d="M15.7936 81.0973L6.98828 89.9141L15.7936 98.7309L24.599 89.9141L15.7936 81.0973Z" fill="#D60000"/>
<path d="M52.7897 44.0406L43.9844 52.8574L52.7897 61.6742L61.5951 52.8574L52.7897 44.0406Z" fill="#D60000"/>
<path d="M82.3755 209.728L68.8613 223.26L82.3755 236.792L95.8898 223.26L82.3755 209.728Z" fill="#D60000"/>
<path d="M45.3736 105.998L31.8594 119.529L45.3736 133.061L58.8878 119.529L45.3736 105.998Z" fill="#D60000"/>
<path d="M82.3775 68.9467L68.8633 82.4785L82.3775 96.0103L95.8917 82.4785L82.3775 68.9467Z" fill="#D60000"/>
<path d="M115.67 170.281L96.0566 189.92L115.67 209.558L135.283 189.92L115.67 170.281Z" fill="#D60000"/>
<path d="M78.6619 133.236L59.0488 152.875L78.6619 172.514L98.275 152.875L78.6619 133.236Z" fill="#D60000"/>
<path d="M115.672 96.1798L96.0586 115.818L115.672 135.457L135.285 115.818L115.672 96.1798Z" fill="#D60000"/>
<path d="M152.673 129.515L129.35 152.869L152.673 176.223L175.997 152.869L152.673 129.515Z" fill="#D60000"/>
</g>
<defs>
<clipPath id="clip0_1848_8885">
<rect width="176" height="284" fill="white"/>
</clipPath>
</defs>
</svg>
