<svg width="308" height="661" viewBox="0 0 308 661" fill="none" xmlns="http://www.w3.org/2000/svg">
<g clip-path="url(#clip0_1845_8615)">
<path d="M9.2551 110L0 119.255L9.2551 128.51L18.5102 119.255L9.2551 110Z" fill="#D60000"/>
<path d="M52.305 640.78L42.1934 650.892L52.305 661.003L62.4166 650.892L52.305 640.78Z" fill="#D60000"/>
<path d="M52.3108 152.194L42.1992 162.306L52.3108 172.417L62.4224 162.306L52.3108 152.194Z" fill="#D60000"/>
<path d="M102.573 583.545L85.4668 600.651L102.573 617.758L119.68 600.651L102.573 583.545Z" fill="#D60000"/>
<path d="M30.6924 267.35L13.5859 284.456L30.6924 301.563L47.7989 284.456L30.6924 267.35Z" fill="#D60000"/>
<path d="M102.565 195.452L85.459 212.559L102.565 229.665L119.672 212.559L102.565 195.452Z" fill="#D60000"/>
<path d="M160.044 516.917L133.789 543.172L160.044 569.426L186.298 543.172L160.044 516.917Z" fill="#D60000"/>
<path d="M88.1608 315.66L61.9062 341.914L88.1608 368.169L114.415 341.914L88.1608 315.66Z" fill="#D60000"/>
<path d="M160.044 243.773L133.789 270.027L160.044 296.282L186.298 270.027L160.044 243.773Z" fill="#D60000"/>
<path d="M224.724 440.382L186.621 478.485L224.724 516.588L262.827 478.485L224.724 440.382Z" fill="#D60000"/>
<path d="M152.826 368.507L114.723 406.61L152.826 444.713L190.929 406.61L152.826 368.507Z" fill="#D60000"/>
<path d="M224.728 296.61L186.625 334.713L224.728 372.816L262.831 334.713L224.728 296.61Z" fill="#D60000"/>
<path d="M296.611 361.288L251.299 406.6L296.611 451.912L341.923 406.6L296.611 361.288Z" fill="#D60000"/>
</g>
<defs>
<clipPath id="clip0_1845_8615">
<rect width="308" height="661" fill="white"/>
</clipPath>
</defs>
</svg>
