<svg width="342" height="661" viewBox="0 0 342 661" fill="none" xmlns="http://www.w3.org/2000/svg">
<g clip-path="url(#clip0_1845_8561)">
<path d="M11.0881 -0.00313324L-0.00976562 11.0947L11.0881 22.1926L22.186 11.0947L11.0881 -0.00313324Z" fill="#D60000"/>
<path d="M62.7089 636.459L50.584 648.584L62.7089 660.709L74.8338 648.584L62.7089 636.459Z" fill="#D60000"/>
<path d="M62.7167 50.5929L50.5918 62.7178L62.7167 74.8427L74.8416 62.7178L62.7167 50.5929Z" fill="#D60000"/>
<path d="M122.985 567.828L102.473 588.341L122.985 608.853L143.498 588.341L122.985 567.828Z" fill="#D60000"/>
<path d="M36.7937 188.676L16.2812 209.188L36.7937 229.701L57.3062 209.188L36.7937 188.676Z" fill="#D60000"/>
<path d="M122.975 102.463L102.463 122.976L122.975 143.488L143.488 122.976L122.975 102.463Z" fill="#D60000"/>
<path d="M191.898 487.934L160.416 519.416L191.898 550.898L223.38 519.416L191.898 487.934Z" fill="#D60000"/>
<path d="M105.705 246.604L74.2227 278.086L105.705 309.568L137.187 278.086L105.705 246.604Z" fill="#D60000"/>
<path d="M191.9 160.405L160.418 191.887L191.9 223.369L223.382 191.887L191.9 160.405Z" fill="#D60000"/>
<path d="M269.457 396.162L223.768 441.852L269.457 487.541L315.147 441.852L269.457 396.162Z" fill="#D60000"/>
<path d="M183.244 309.976L137.555 355.665L183.244 401.355L228.934 355.665L183.244 309.976Z" fill="#D60000"/>
<path d="M269.463 223.763L223.773 269.452L269.463 315.142L315.152 269.452L269.463 223.763Z" fill="#D60000"/>
<path d="M355.658 301.318L301.324 355.652L355.658 409.986L409.992 355.652L355.658 301.318Z" fill="#D60000"/>
</g>
<defs>
<clipPath id="clip0_1845_8561">
<rect width="342" height="661" fill="white"/>
</clipPath>
</defs>
</svg>
